<?xml version="1.0" standalone="no"?>
<!DOCTYPE svg PUBLIC "-//W3C//DTD SVG 20010904//EN"
 "http://www.w3.org/TR/2001/REC-SVG-20010904/DTD/svg10.dtd">
<svg version="1.0" xmlns="http://www.w3.org/2000/svg"
 width="208.000000pt" height="250.000000pt" viewBox="0 0 208.000000 250.000000"
 preserveAspectRatio="xMidYMid meet">

<g transform="translate(0.000000,250.000000) scale(0.100000,-0.100000)"
fill="#000000" stroke="none">
<path d="M1052 2450 c-84 -9 -130 -35 -186 -103 -57 -70 -86 -147 -93 -246 -3
-47 -10 -92 -16 -99 -8 -10 -7 -16 2 -21 6 -4 19 -34 27 -65 21 -81 57 -153
108 -214 l43 -54 -13 -70 c-7 -39 -15 -73 -17 -75 -9 -8 -125 -23 -180 -23
-51 0 -61 -4 -87 -30 -16 -16 -32 -45 -36 -65 -4 -21 -22 -51 -46 -76 -40 -41
-40 -42 -34 -100 4 -33 14 -78 22 -100 20 -58 19 -270 -2 -324 -9 -22 -20 -64
-24 -92 -5 -29 -22 -75 -38 -101 -16 -26 -33 -58 -36 -70 -8 -25 -107 -112
-128 -112 -25 0 -142 -43 -168 -61 -14 -11 -48 -20 -78 -22 -76 -6 -76 -17 0
-17 48 0 72 5 89 19 32 24 151 63 186 60 44 -3 63 0 63 11 0 6 -10 10 -21 10
-18 0 -15 6 23 39 50 44 128 183 128 228 0 16 9 54 20 86 25 72 28 284 5 361
-25 84 -20 132 19 178 19 21 37 54 40 73 12 63 30 74 141 86 55 5 161 14 235
19 74 4 175 14 223 20 63 8 92 9 101 1 7 -6 15 -9 17 -6 3 2 89 6 193 9 153 4
194 3 217 -9 15 -8 42 -15 59 -15 24 0 40 -9 63 -35 22 -25 39 -35 59 -35 71
0 98 -45 98 -159 0 -48 -6 -90 -14 -108 -8 -15 -19 -39 -25 -53 -10 -23 -15
-33 -41 -77 -6 -10 -18 -34 -26 -53 -9 -19 -27 -47 -39 -62 -16 -19 -26 -47
-30 -85 -6 -50 -13 -64 -50 -103 -23 -25 -48 -55 -54 -67 -6 -12 -26 -29 -43
-39 -117 -61 -107 -58 -222 -56 -156 3 -218 27 -320 121 -33 31 -92 82 -131
113 -133 107 -235 232 -235 289 0 15 -10 47 -21 69 -18 34 -20 50 -14 105 7
70 -8 92 -19 28 -10 -66 -7 -107 14 -146 11 -20 20 -50 20 -66 0 -58 107 -188
245 -299 39 -31 100 -84 136 -117 36 -33 85 -69 110 -79 24 -10 53 -23 64 -29
11 -6 55 -13 98 -15 70 -4 77 -6 77 -26 0 -37 37 -86 64 -86 14 0 28 -5 31
-10 4 -6 63 -10 143 -10 107 0 152 -4 207 -20 68 -20 135 -27 121 -13 -21 22
-155 46 -291 53 -211 12 -222 15 -240 57 -20 47 -19 56 5 50 11 -3 35 2 53 10
105 49 141 71 156 92 9 13 37 47 62 75 38 43 47 61 57 115 6 36 20 73 31 85
10 12 26 37 35 56 9 19 20 43 26 52 26 45 31 55 41 78 6 14 17 39 25 55 15 34
22 173 10 222 -9 37 -51 67 -109 77 -27 5 -40 14 -47 30 -10 26 -29 36 -70 36
-15 0 -43 6 -62 14 -30 13 -36 22 -52 76 -16 61 -15 73 15 100 3 3 13 22 23
43 15 33 18 67 17 225 0 309 -34 395 -185 467 -58 28 -64 28 -255 31 -108 1
-229 -1 -269 -6z m321 -17 c-29 -2 -77 -2 -105 0 -29 2 -6 3 52 3 58 0 81 -1
53 -3z m-305 -10 c-10 -2 -26 -2 -35 0 -10 3 -2 5 17 5 19 0 27 -2 18 -5z
m166 -19 c9 -3 32 -29 52 -56 30 -40 34 -52 23 -59 -17 -11 -459 -12 -459 -1
1 4 10 18 21 31 19 23 25 24 188 29 151 4 205 11 191 25 -3 3 -79 1 -170 -3
-91 -4 -167 -6 -168 -4 -2 1 7 8 20 16 32 18 267 36 302 22z m216 -3 c0 -18
-27 -29 -88 -34 -54 -4 -64 -3 -72 13 -6 10 -10 21 -10 24 0 3 38 6 85 6 47 0
85 -4 85 -9z m130 -5 c31 -13 31 -13 9 -19 -13 -4 -49 -7 -79 -7 l-55 1 24 19
c27 23 56 25 101 6z m-174 -69 c-9 -36 -36 -97 -42 -97 -4 0 -4 11 -2 25 3 14
0 29 -6 33 -6 4 -16 17 -23 29 -14 25 -7 31 46 32 30 1 33 -1 27 -22z m281
-22 c12 -22 23 -43 23 -47 0 -5 -30 -8 -67 -9 -38 0 -106 -4 -153 -8 -47 -4
-86 -7 -88 -6 -1 1 7 28 18 59 l22 57 111 -3 111 -3 23 -40z m-348 -66 c6 -18
11 -37 11 -44 0 -9 -63 -14 -235 -19 l-234 -7 -30 29 c-26 24 -29 31 -18 45
10 15 42 17 247 20 129 1 238 3 242 5 3 1 11 -12 17 -29z m381 -35 c6 -14 10
-38 10 -53 l0 -28 -166 -7 c-91 -4 -168 -5 -171 -2 -8 8 -9 83 -1 91 8 8 152
22 246 24 69 1 73 0 82 -25z m-895 -37 c-20 -11 -29 -3 -21 19 5 13 9 14 22 3
14 -11 14 -13 -1 -22z m531 -23 c-3 -9 -6 -40 -6 -70 l0 -54 -148 0 -148 0
-67 56 c-37 32 -67 61 -67 65 0 9 88 14 304 17 122 2 137 0 132 -14z m-407
-63 l79 -68 -60 -7 c-34 -3 -87 -6 -119 -6 l-59 0 0 53 c0 80 6 92 45 94 29 3
45 -7 114 -66z m791 -14 l0 -34 -107 -6 c-58 -4 -137 -7 -175 -7 l-69 0 3 31
3 31 90 5 c50 3 92 7 94 9 2 2 40 4 83 4 l78 0 0 -33z m-22 -63 c19 -6 22 -13
22 -56 l0 -49 -57 7 c-69 8 -69 8 -76 36 -2 13 -8 31 -11 40 -6 12 -1 18 16
21 37 7 81 7 106 1z m-148 -49 c0 -41 -2 -45 -24 -45 -21 0 -24 6 -28 40 -4
40 -4 40 45 49 4 0 7 -19 7 -44z m-170 20 c0 -8 -4 -15 -10 -15 -5 0 -10 7
-10 15 0 8 5 15 10 15 6 0 10 -7 10 -15z m-488 -42 c3 -27 3 -51 1 -55 -2 -5
-24 -8 -48 -8 -42 0 -44 1 -54 38 -20 68 -17 72 43 72 l54 0 4 -47z m140 41
c5 -5 -39 -151 -49 -164 -2 -2 -8 2 -13 10 -9 13 -10 13 -11 0 -1 -8 0 -23 1
-33 1 -13 -4 -18 -17 -15 -14 3 -18 13 -19 54 -1 27 -4 67 -8 87 -5 25 -3 37
4 37 6 0 9 4 6 9 -4 5 0 12 6 14 18 7 93 8 100 1z m298 -8 c0 -23 -52 -36 -81
-20 -13 7 -42 14 -64 14 -22 1 -49 5 -60 10 -13 6 20 9 93 9 90 1 112 -2 112
-13z m134 -88 c-4 -57 -11 -108 -16 -115 -10 -13 -58 -27 -66 -19 -3 3 2 14
12 25 13 14 14 24 7 45 -12 30 -26 35 -18 6 3 -11 2 -20 -3 -20 -11 0 -20 38
-20 88 0 35 3 42 20 42 11 0 20 7 20 15 0 16 27 34 53 35 16 0 17 -9 11 -102z
m-380 28 c10 -19 15 -39 11 -45 -4 -7 -1 -10 7 -9 7 2 12 -5 12 -14 -1 -10 2
-16 7 -15 5 1 24 -22 41 -52 l31 -54 -71 6 c-56 4 -77 11 -96 29 l-25 23 27
83 c15 45 29 82 32 82 3 0 14 -15 24 -34z m37 11 c5 -12 27 -32 48 -44 59 -34
101 -73 101 -93 0 -11 -11 -31 -23 -46 l-24 -27 -15 29 c-22 42 -72 135 -89
164 -8 14 -18 28 -24 32 -6 5 -5 8 3 8 7 0 17 -10 23 -23z m115 7 c19 -9 45
-14 57 -12 26 5 34 -17 10 -27 -9 -3 -12 -12 -8 -25 12 -37 -4 -38 -41 -3 -21
19 -48 39 -61 44 -26 10 -32 39 -7 39 9 0 31 -7 50 -16z m353 -101 c1 -29 -2
-33 -24 -33 -14 0 -25 1 -25 3 0 2 7 25 17 52 13 40 18 46 24 30 4 -11 8 -35
8 -52z m109 57 c19 0 22 -5 22 -45 l0 -45 -50 0 c-45 0 -50 2 -55 25 -3 14 -7
37 -11 51 -5 26 -4 27 33 21 21 -4 48 -7 61 -7z m-158 -6 c0 -4 -5 -24 -12
-45 -8 -27 -17 -39 -30 -39 -15 0 -18 8 -18 45 0 43 1 45 30 45 17 0 30 -3 30
-6z m-640 -41 c0 -10 3 -28 6 -39 4 -16 0 -23 -18 -27 -26 -7 -47 11 -66 56
l-12 27 45 0 c36 0 45 -3 45 -17z m448 -32 c16 -53 15 -61 -8 -61 -26 0 -34
21 -26 65 9 46 20 44 34 -4z m263 -57 c5 -15 8 -28 7 -29 -2 -1 -26 -6 -53
-12 l-51 -9 4 29 c7 49 76 64 93 21z m99 14 c-1 -23 -27 -48 -49 -48 -11 0
-21 3 -21 8 0 4 -3 17 -6 30 -6 20 -3 22 35 22 26 0 41 -4 41 -12z m-761 -17
c11 -7 10 -13 -4 -35 l-18 -27 -28 27 c-21 20 -26 30 -17 36 17 10 50 10 67
-1z m76 -17 c14 -9 54 -19 90 -22 99 -7 66 -22 -51 -22 -81 0 -104 3 -100 13
3 6 9 20 12 30 8 21 18 21 49 1z m460 6 c8 -13 -20 -24 -41 -16 -8 3 -12 10
-9 16 8 13 42 13 50 0z m-127 -22 c29 -15 28 -28 -1 -28 -13 0 -34 12 -48 26
l-24 26 25 -6 c14 -4 35 -12 48 -18z m-78 -9 c0 -6 -4 -7 -10 -4 -5 3 -10 11
-10 16 0 6 5 7 10 4 6 -3 10 -11 10 -16z m353 -23 c13 -32 -43 -45 -118 -26
-34 8 -25 14 40 29 58 13 72 13 78 -3z m-468 -25 c-38 -34 -160 -41 -196 -11
l-24 19 115 1 c64 0 110 -4 105 -9z m65 -11 c10 -18 8 -20 -27 -20 l-38 0 25
20 c31 24 27 24 40 0z m204 12 c3 -5 -33 -15 -81 -22 -72 -10 -87 -10 -94 1
-5 8 -9 17 -9 22 0 10 178 9 184 -1z m-459 -42 c17 -8 33 -18 36 -23 4 -5 55
-4 114 2 60 6 114 11 120 11 6 0 18 -15 27 -33 l16 -34 -131 -16 c-73 -10
-158 -17 -191 -17 -51 0 -57 2 -51 18 3 9 9 39 12 65 3 26 9 46 12 45 3 -2 20
-10 36 -18z m689 -27 c9 -25 15 -47 13 -48 -1 -1 -54 -5 -119 -9 l-116 -7 16
50 17 50 80 4 c44 1 83 4 87 5 3 1 13 -19 22 -45z m-219 15 c-14 -44 -30 -73
-43 -72 -6 1 -29 2 -50 3 -33 1 -41 6 -55 35 l-16 34 62 10 c104 16 109 15
102 -10z"/>
<path d="M1417 1895 c-4 -9 -3 -13 3 -10 6 3 10 -1 10 -10 0 -9 7 -23 15 -31
13 -14 16 -14 21 0 9 23 0 51 -16 51 -8 0 -18 4 -21 8 -3 5 -9 1 -12 -8z"/>
<path d="M1081 1883 c-1 -17 16 -25 25 -12 4 7 3 9 -4 5 -5 -3 -13 0 -15 6 -4
9 -6 10 -6 1z"/>
<path d="M1160 1876 c0 -2 8 -10 18 -17 15 -13 16 -12 3 4 -13 16 -21 21 -21
13z"/>
<path d="M1485 1324 c-6 -32 -3 -41 26 -70 18 -18 51 -40 73 -47 39 -13 41
-16 44 -57 2 -24 12 -56 23 -71 10 -15 16 -34 13 -43 -7 -19 -10 -19 -33 -7
-9 6 -23 6 -31 1 -10 -6 -5 -12 21 -23 38 -16 55 -9 70 30 9 23 30 28 100 23
32 -2 65 26 73 62 6 25 3 27 -47 38 -28 7 -61 19 -72 26 -31 22 -74 18 -85 -8
-9 -23 -9 -23 -9 -2 -1 25 -17 40 -52 49 -15 4 -42 20 -62 36 -32 26 -35 33
-30 64 8 47 -13 46 -22 -1z m253 -162 c18 -10 39 -30 47 -45 14 -27 14 -27
-20 -27 -58 0 -85 18 -85 57 0 38 10 40 58 15z m-43 -82 c3 -5 1 -10 -4 -10
-6 0 -11 5 -11 10 0 6 2 10 4 10 3 0 8 -4 11 -10z"/>
<path d="M1220 1315 c0 -8 14 -30 30 -48 17 -19 30 -40 30 -46 0 -6 5 -11 10
-11 19 0 10 33 -20 67 -16 18 -30 38 -30 43 0 6 -4 10 -10 10 -5 0 -10 -7 -10
-15z"/>
<path d="M977 1293 c-16 -15 -3 -18 76 -15 112 5 124 22 16 22 -47 0 -89 -3
-92 -7z"/>
<path d="M1810 1276 c0 -7 67 -46 79 -46 21 0 11 20 -19 35 -27 14 -60 20 -60
11z"/>
<path d="M1645 1259 c-4 -6 -5 -12 -3 -14 7 -7 48 7 48 16 0 13 -37 11 -45 -2z"/>
<path d="M1350 1141 c-23 -4 -36 -12 -38 -24 -10 -49 32 -107 76 -107 30 0 24
24 -7 28 -25 4 -56 46 -48 66 3 8 18 16 33 18 15 2 29 9 32 16 2 6 0 11 -5 11
-4 -1 -24 -4 -43 -8z"/>
<path d="M1025 1107 c-87 -31 -90 -33 -92 -64 -1 -31 1 -32 45 -38 26 -4 61
-10 77 -14 19 -5 51 -1 90 11 33 10 60 17 60 16 0 -1 9 3 20 10 12 7 16 15 10
19 -5 5 -10 19 -10 33 0 18 -9 29 -35 42 -47 23 -60 22 -165 -15z m142 1 c26
-10 33 -18 33 -39 0 -21 -7 -29 -31 -38 -18 -6 -32 -11 -33 -11 -1 0 -1 17 -2
37 0 20 -6 39 -12 41 -7 2 -10 8 -6 13 7 12 11 11 51 -3z m-177 -58 c0 -13 -7
-20 -20 -20 -18 0 -19 3 -10 20 6 11 15 20 20 20 6 0 10 -9 10 -20z"/>
<path d="M1470 1050 c-8 -5 -12 -11 -9 -15 9 -8 69 7 63 16 -7 12 -35 11 -54
-1z"/>
<path d="M797 915 c11 -41 7 -149 -7 -175 -6 -12 -9 -24 -7 -27 3 -3 13 10 22
28 20 38 18 170 -3 191 -11 11 -12 8 -5 -17z"/>
<path d="M1390 865 c-11 -14 -29 -16 -94 -14 l-81 3 3 -29 c2 -17 10 -34 19
-40 9 -5 28 -20 44 -33 67 -54 192 -65 339 -27 150 38 173 56 130 105 -22 25
-85 37 -245 46 -87 5 -103 4 -115 -11z"/>
<path d="M760 553 c-26 -10 -51 -36 -86 -90 -22 -35 -41 -53 -54 -53 -11 0
-20 -4 -20 -10 0 -5 11 -10 24 -10 25 0 57 32 88 89 11 20 33 39 58 49 22 9
40 20 40 25 0 8 -27 8 -50 0z"/>
<path d="M1311 480 c-1 -9 6 -26 15 -38 17 -25 54 -48 54 -33 0 5 -8 12 -18
15 -10 4 -26 21 -35 39 -8 17 -16 25 -16 17z"/>
<path d="M990 291 c0 -5 8 -7 18 -4 28 7 99 -28 111 -54 9 -19 18 -23 54 -23
36 0 47 5 65 29 17 23 31 31 64 34 l43 4 -47 1 c-42 2 -50 -1 -70 -28 -28 -39
-78 -42 -101 -6 -26 39 -137 77 -137 47z"/>
</g>
</svg>
